# xmcd
#
# Track frame offsets:
#  150
#  13725
#  27205
#  39852
#  49677
#  64755
#  77064
#  87552
#  105099
#  119419
#  133268
#  151227
#  167685
#  184930
#  198082
#  217078
#  228278
#  240142
#  255483
#  266811
#
# Disc length: 3761 seconds
#
# Revision: 0
# Processed by: cddbd v1.4PL0 Copyright (c) Steve Scherf et al.
# Submitted via: AltoMP3_Maker 3.0
#
DISCID=020eaf14
DTITLE=Variées - Country Gold
DYEAR=1900
DGENRE=
TTITLE0=Ma petite maison dans la vallée
TTITLE1=Allo allo petit Michel
TTITLE2=New Brunswick, Gaspésie, Abitibi
TTITLE3=Garde-moi tes beaux yeux
TTITLE4=Au Village
TTITLE5=La seule dans ma vie
TTITLE6=A t'attendre
TTITLE7=Always On My Mind
TTITLE8=Mon cher papa au cheveux blanc
TTITLE9=On est fait pour vivre ensemble
TTITLE10=Ma petite Mado
TTITLE11=Tour à tour
TTITLE12=Serment d'amour
TTITLE13=Ton amour a changé ma vie
TTITLE14=Medley à Johnny Cash
TTITLE15=La prière de l'aveugle
TTITLE16=Porte mon amour à ma Rose
TTITLE17=Ce soir je bois pour t'oublier
TTITLE18=Sois fidèle et sincère
TTITLE19=Moi et Bobby McGee
EXTD=
EXTT0=
EXTT1=
EXTT2=
EXTT3=
EXTT4=
EXTT5=
EXTT6=
EXTT7=
EXTT8=
EXTT9=
EXTT10=
EXTT11=
EXTT12=
EXTT13=
EXTT14=
EXTT15=
EXTT16=
EXTT17=
EXTT18=
EXTT19=
PLAYORDER=
